<svg width="130" height="132" viewBox="0 0 130 132" fill="none" xmlns="http://www.w3.org/2000/svg">
<g filter="url(#filter0_d_2526_96750)">
<rect x="0.875" y="0.568359" width="128.897" height="128.897" rx="4.10127" fill="white"/>
<rect x="1.4609" y="1.15425" width="127.725" height="127.725" rx="3.51537" stroke="#2B3EA0" stroke-width="1.17179"/>
</g>
<g filter="url(#filter1_d_2526_96750)">
<path d="M59.2121 15.3732C61.9394 10.8021 68.5601 10.8021 71.2875 15.3732L107.051 75.3131C109.847 79.9996 106.47 85.9463 101.013 85.9463H29.4864C24.0292 85.9463 20.6525 79.9995 23.4487 75.3131L59.2121 15.3732Z" fill="#2B3EA0"/>
<path d="M59.4639 15.5234C62.0368 11.2112 68.2254 11.1436 70.9111 15.3213L71.0361 15.5234L106.799 75.4629C109.479 79.9541 106.243 85.6533 101.013 85.6533H29.4863C24.3383 85.6533 21.1225 80.1313 23.5791 75.6748L23.7002 75.4629L59.4639 15.5234Z" stroke="#2B3EA0" stroke-width="0.585895"/>
</g>
<g filter="url(#filter2_d_2526_96750)">
<path d="M65.25 36.1719V53.4002" stroke="white" stroke-width="8.20253" stroke-linecap="round"/>
</g>
<g filter="url(#filter3_d_2526_96750)">
<ellipse cx="65.2555" cy="69.2657" rx="4.3336" ry="4.19339" fill="white"/>
</g>
<path d="M17.9692 99.9137C17.9692 100.551 17.8527 101.098 17.6197 101.557C17.3866 102.013 17.0672 102.364 16.6613 102.611C16.2574 102.856 15.7982 102.978 15.2836 102.978C14.767 102.978 14.3058 102.856 13.9 102.611C13.4961 102.364 13.1776 102.012 12.9446 101.554C12.7115 101.095 12.595 100.549 12.595 99.9137C12.595 99.2768 12.7115 98.7302 12.9446 98.2738C13.1776 97.8155 13.4961 97.4641 13.9 97.2194C14.3058 96.9728 14.767 96.8494 15.2836 96.8494C15.7982 96.8494 16.2574 96.9728 16.6613 97.2194C17.0672 97.4641 17.3866 97.8155 17.6197 98.2738C17.8527 98.7302 17.9692 99.2768 17.9692 99.9137ZM17.0779 99.9137C17.0779 99.4283 16.9992 99.0195 16.8419 98.6874C16.6866 98.3534 16.473 98.101 16.2011 97.9301C15.9312 97.7573 15.6253 97.6709 15.2836 97.6709C14.9399 97.6709 14.633 97.7573 14.3631 97.9301C14.0932 98.101 13.8796 98.3534 13.7223 98.6874C13.5669 99.0195 13.4893 99.4283 13.4893 99.9137C13.4893 100.399 13.5669 100.809 13.7223 101.143C13.8796 101.475 14.0932 101.727 14.3631 101.9C14.633 102.071 14.9399 102.157 15.2836 102.157C15.6253 102.157 15.9312 102.071 16.2011 101.9C16.473 101.727 16.6866 101.475 16.8419 101.143C16.9992 100.809 17.0779 100.399 17.0779 99.9137ZM18.771 99.1739V98.4224H22.546V99.1739H21.0867V102.896H20.2361V99.1739H18.771ZM25.1435 102.987C24.7105 102.987 24.3376 102.889 24.025 102.693C23.7143 102.495 23.4754 102.222 23.3084 101.874C23.1414 101.526 23.0579 101.128 23.0579 100.68C23.0579 100.225 23.1434 99.8244 23.3142 99.4768C23.4851 99.1273 23.7259 98.8544 24.0366 98.6583C24.3473 98.4622 24.7134 98.3641 25.1348 98.3641C25.4746 98.3641 25.7775 98.4272 26.0436 98.5535C26.3096 98.6777 26.5242 98.8525 26.6873 99.0778C26.8524 99.303 26.9504 99.5661 26.9815 99.8671H26.1339C26.0873 99.6574 25.9805 99.4768 25.8135 99.3254C25.6484 99.1739 25.427 99.0982 25.1493 99.0982C24.9066 99.0982 24.694 99.1622 24.5114 99.2904C24.3308 99.4166 24.19 99.5972 24.0891 99.8322C23.9881 100.065 23.9376 100.341 23.9376 100.659C23.9376 100.986 23.9871 101.267 24.0861 101.504C24.1852 101.741 24.325 101.925 24.5056 102.055C24.6881 102.185 24.9027 102.25 25.1493 102.25C25.3144 102.25 25.4639 102.22 25.5979 102.16C25.7338 102.097 25.8474 102.009 25.9387 101.894C26.0319 101.78 26.097 101.642 26.1339 101.481H26.9815C26.9504 101.77 26.8562 102.028 26.699 102.256C26.5417 102.483 26.331 102.662 26.0669 102.792C25.8047 102.922 25.4969 102.987 25.1435 102.987ZM28.4634 104.574C28.3333 104.574 28.2148 104.564 28.108 104.542C28.0012 104.523 27.9216 104.501 27.8692 104.478L28.0789 103.765C28.2381 103.807 28.3799 103.826 28.5042 103.82C28.6285 103.814 28.7382 103.767 28.8333 103.68C28.9304 103.593 29.0159 103.45 29.0897 103.252L29.1974 102.955L27.5604 98.4224H28.4925L29.6256 101.894H29.6722L30.8053 98.4224H31.7403L29.8965 103.494C29.8111 103.727 29.7023 103.924 29.5703 104.085C29.4382 104.248 29.2809 104.37 29.0984 104.452C28.9159 104.533 28.7042 104.574 28.4634 104.574ZM32.3083 99.1739V98.4224H36.0834V99.1739H34.624V102.896H33.7735V99.1739H32.3083ZM38.6809 102.987C38.2478 102.987 37.875 102.889 37.5624 102.693C37.2517 102.495 37.0128 102.222 36.8458 101.874C36.6788 101.526 36.5953 101.128 36.5953 100.68C36.5953 100.225 36.6807 99.8244 36.8516 99.4768C37.0225 99.1273 37.2633 98.8544 37.574 98.6583C37.8847 98.4622 38.2508 98.3641 38.6721 98.3641C39.012 98.3641 39.3149 98.4272 39.581 98.5535C39.847 98.6777 40.0616 98.8525 40.2247 99.0778C40.3897 99.303 40.4878 99.5661 40.5189 99.8671H39.6712C39.6246 99.6574 39.5178 99.4768 39.3508 99.3254C39.1858 99.1739 38.9644 99.0982 38.6867 99.0982C38.444 99.0982 38.2313 99.1622 38.0488 99.2904C37.8682 99.4166 37.7274 99.5972 37.6264 99.8322C37.5255 100.065 37.475 100.341 37.475 100.659C37.475 100.986 37.5245 101.267 37.6235 101.504C37.7226 101.741 37.8624 101.925 38.043 102.055C38.2255 102.185 38.4401 102.25 38.6867 102.25C38.8518 102.25 39.0013 102.22 39.1353 102.16C39.2712 102.097 39.3848 102.009 39.4761 101.894C39.5693 101.78 39.6344 101.642 39.6712 101.481H40.5189C40.4878 101.77 40.3936 102.028 40.2363 102.256C40.079 102.483 39.8684 102.662 39.6043 102.792C39.3421 102.922 39.0343 102.987 38.6809 102.987ZM41.1116 99.1739V98.4224H44.8867V99.1739H43.4273V102.896H42.5768V99.1739H41.1116ZM45.8079 102.896V98.4224H47.6633C48.1682 98.4224 48.5682 98.5302 48.8634 98.7457C49.1586 98.9593 49.3062 99.2496 49.3062 99.6166C49.3062 99.8788 49.2227 100.087 49.0557 100.24C48.8887 100.393 48.6673 100.496 48.3915 100.549C48.5916 100.572 48.7751 100.632 48.9421 100.729C49.1091 100.824 49.2431 100.953 49.344 101.114C49.447 101.275 49.4984 101.467 49.4984 101.691C49.4984 101.927 49.4372 102.137 49.3149 102.32C49.1926 102.5 49.0149 102.642 48.7819 102.745C48.5508 102.846 48.2721 102.896 47.9459 102.896H45.8079ZM46.6264 102.168H47.9459C48.1614 102.168 48.3304 102.117 48.4527 102.014C48.575 101.911 48.6362 101.771 48.6362 101.594C48.6362 101.387 48.575 101.224 48.4527 101.105C48.3304 100.985 48.1614 100.924 47.9459 100.924H46.6264V102.168ZM46.6264 100.287H47.6721C47.8352 100.287 47.975 100.263 48.0915 100.217C48.21 100.17 48.3003 100.104 48.3624 100.019C48.4265 99.9312 48.4585 99.8283 48.4585 99.7098C48.4585 99.537 48.3877 99.4021 48.2459 99.305C48.1041 99.2079 47.9099 99.1593 47.6633 99.1593H46.6264V100.287ZM51.0043 104.574C50.8742 104.574 50.7558 104.564 50.649 104.542C50.5422 104.523 50.4626 104.501 50.4101 104.478L50.6198 103.765C50.7791 103.807 50.9208 103.826 51.0451 103.82C51.1694 103.814 51.2791 103.767 51.3743 103.68C51.4714 103.593 51.5568 103.45 51.6306 103.252L51.7384 102.955L50.1014 98.4224H51.0335L52.1666 101.894H52.2132L53.3463 98.4224H54.2813L52.4375 103.494C52.352 103.727 52.2433 103.924 52.1112 104.085C51.9792 104.248 51.8219 104.37 51.6393 104.452C51.4568 104.533 51.2451 104.574 51.0043 104.574ZM56.8759 102.987C56.4351 102.987 56.0554 102.893 55.737 102.704C55.4204 102.514 55.1758 102.247 55.0029 101.903C54.832 101.558 54.7466 101.153 54.7466 100.689C54.7466 100.23 54.832 99.8264 55.0029 99.4768C55.1758 99.1273 55.4166 98.8544 55.7253 98.6583C56.036 98.4622 56.3991 98.3641 56.8147 98.3641C57.0672 98.3641 57.3118 98.4059 57.5487 98.4894C57.7857 98.5729 57.9983 98.7039 58.1867 98.8826C58.375 99.0613 58.5236 99.2933 58.6323 99.5788C58.7411 99.8623 58.7954 100.207 58.7954 100.613V100.922H55.2389V100.269H57.942C57.942 100.04 57.8954 99.837 57.8022 99.6603C57.709 99.4817 57.5779 99.3409 57.4089 99.238C57.2419 99.135 57.0458 99.0836 56.8205 99.0836C56.5759 99.0836 56.3623 99.1438 56.1797 99.2642C55.9991 99.3826 55.8593 99.538 55.7603 99.7302C55.6632 99.9205 55.6146 100.127 55.6146 100.351V100.86C55.6146 101.159 55.6671 101.414 55.7719 101.624C55.8787 101.833 56.0273 101.994 56.2176 102.104C56.4079 102.213 56.6302 102.267 56.8846 102.267C57.0497 102.267 57.2002 102.244 57.3361 102.197C57.472 102.149 57.5895 102.077 57.6886 101.982C57.7876 101.887 57.8633 101.769 57.9158 101.629L58.7401 101.778C58.6741 102.021 58.5556 102.233 58.3847 102.416C58.2158 102.596 58.0031 102.737 57.7468 102.838C57.4924 102.937 57.2021 102.987 56.8759 102.987ZM59.3671 99.1739V98.4224H63.1421V99.1739H61.6828V102.896H60.8322V99.1739H59.3671ZM68.1187 102.987C67.6856 102.987 67.3128 102.889 67.0002 102.693C66.6895 102.495 66.4506 102.222 66.2836 101.874C66.1166 101.526 66.0331 101.128 66.0331 100.68C66.0331 100.225 66.1185 99.8244 66.2894 99.4768C66.4603 99.1273 66.7011 98.8544 67.0118 98.6583C67.3225 98.4622 67.6886 98.3641 68.1099 98.3641C68.4498 98.3641 68.7527 98.4272 69.0187 98.5535C69.2848 98.6777 69.4994 98.8525 69.6625 99.0778C69.8275 99.303 69.9256 99.5661 69.9567 99.8671H69.109C69.0624 99.6574 68.9556 99.4768 68.7886 99.3254C68.6236 99.1739 68.4022 99.0982 68.1245 99.0982C67.8818 99.0982 67.6691 99.1622 67.4866 99.2904C67.306 99.4166 67.1652 99.5972 67.0642 99.8322C66.9633 100.065 66.9128 100.341 66.9128 100.659C66.9128 100.986 66.9623 101.267 67.0613 101.504C67.1604 101.741 67.3002 101.925 67.4808 102.055C67.6633 102.185 67.8779 102.25 68.1245 102.25C68.2896 102.25 68.4391 102.22 68.5731 102.16C68.709 102.097 68.8226 102.009 68.9139 101.894C69.0071 101.78 69.0721 101.642 69.109 101.481H69.9567C69.9256 101.77 69.8314 102.028 69.6741 102.256C69.5168 102.483 69.3061 102.662 69.042 102.792C68.7799 102.922 68.4721 102.987 68.1187 102.987ZM72.7727 102.987C72.3532 102.987 71.9872 102.891 71.6745 102.698C71.3619 102.506 71.1191 102.237 70.9463 101.892C70.7735 101.546 70.6871 101.142 70.6871 100.68C70.6871 100.216 70.7735 99.8099 70.9463 99.4623C71.1191 99.1147 71.3619 98.8447 71.6745 98.6525C71.9872 98.4602 72.3532 98.3641 72.7727 98.3641C73.1921 98.3641 73.5582 98.4602 73.8708 98.6525C74.1834 98.8447 74.4262 99.1147 74.599 99.4623C74.7718 99.8099 74.8582 100.216 74.8582 100.68C74.8582 101.142 74.7718 101.546 74.599 101.892C74.4262 102.237 74.1834 102.506 73.8708 102.698C73.5582 102.891 73.1921 102.987 72.7727 102.987ZM72.7756 102.256C73.0474 102.256 73.2727 102.184 73.4513 102.04C73.63 101.896 73.7621 101.705 73.8475 101.466C73.9349 101.227 73.9786 100.964 73.9786 100.677C73.9786 100.391 73.9349 100.129 73.8475 99.8904C73.7621 99.6496 73.63 99.4564 73.4513 99.3108C73.2727 99.1651 73.0474 99.0923 72.7756 99.0923C72.5018 99.0923 72.2746 99.1651 72.094 99.3108C71.9153 99.4564 71.7823 99.6496 71.6949 99.8904C71.6095 100.129 71.5667 100.391 71.5667 100.677C71.5667 100.964 71.6095 101.227 71.6949 101.466C71.7823 101.705 71.9153 101.896 72.094 102.04C72.2746 102.184 72.5018 102.256 72.7756 102.256ZM77.7587 102.987C77.3179 102.987 76.9382 102.893 76.6198 102.704C76.3032 102.514 76.0586 102.247 75.8857 101.903C75.7149 101.558 75.6294 101.153 75.6294 100.689C75.6294 100.23 75.7149 99.8264 75.8857 99.4768C76.0586 99.1273 76.2994 98.8544 76.6081 98.6583C76.9188 98.4622 77.282 98.3641 77.6975 98.3641C77.95 98.3641 78.1946 98.4059 78.4316 98.4894C78.6685 98.5729 78.8811 98.7039 79.0695 98.8826C79.2578 99.0613 79.4064 99.2933 79.5151 99.5788C79.6239 99.8623 79.6782 100.207 79.6782 100.613V100.922H76.1217V100.269H78.8248C78.8248 100.04 78.7782 99.837 78.685 99.6603C78.5918 99.4817 78.4607 99.3409 78.2917 99.238C78.1247 99.135 77.9286 99.0836 77.7033 99.0836C77.4587 99.0836 77.2451 99.1438 77.0625 99.2642C76.8819 99.3826 76.7421 99.538 76.6431 99.7302C76.546 99.9205 76.4974 100.127 76.4974 100.351V100.86C76.4974 101.159 76.5499 101.414 76.6547 101.624C76.7615 101.833 76.9101 101.994 77.1004 102.104C77.2907 102.213 77.513 102.267 77.7674 102.267C77.9325 102.267 78.083 102.244 78.2189 102.197C78.3549 102.149 78.4723 102.077 78.5714 101.982C78.6704 101.887 78.7461 101.769 78.7986 101.629L79.6229 101.778C79.5569 102.021 79.4384 102.233 79.2675 102.416C79.0986 102.596 78.886 102.737 78.6296 102.838C78.3752 102.937 78.0849 102.987 77.7587 102.987ZM80.2077 104.187V102.142H80.5718C80.665 102.057 80.7436 101.955 80.8077 101.836C80.8737 101.718 80.9291 101.577 80.9737 101.414C81.0203 101.251 81.0592 101.06 81.0902 100.843C81.1213 100.624 81.1485 100.373 81.1718 100.091L81.3116 98.4224H84.3526V102.142H85.04V104.187H84.1895V102.896H81.0699V104.187H80.2077ZM81.5039 102.142H83.5021V99.1681H82.0923L81.9991 100.091C81.9544 100.561 81.8981 100.969 81.8301 101.315C81.7621 101.659 81.6534 101.934 81.5039 102.142ZM86.7448 101.676L88.7168 98.4224H89.6547V102.896H88.8012V99.6399L86.838 102.896H85.8913V98.4224H86.7448V101.676ZM93.8579 100.284V101.038H91.4344V100.284H93.8579ZM91.6791 98.4224V102.896H90.8257V98.4224H91.6791ZM94.4667 98.4224V102.896H93.6162V98.4224H94.4667ZM97.5601 102.987C97.1193 102.987 96.7397 102.893 96.4212 102.704C96.1047 102.514 95.86 102.247 95.6872 101.903C95.5163 101.558 95.4308 101.153 95.4308 100.689C95.4308 100.23 95.5163 99.8264 95.6872 99.4768C95.86 99.1273 96.1008 98.8544 96.4096 98.6583C96.7203 98.4622 97.0834 98.3641 97.499 98.3641C97.7514 98.3641 97.9961 98.4059 98.233 98.4894C98.4699 98.5729 98.6825 98.7039 98.8709 98.8826C99.0593 99.0613 99.2078 99.2933 99.3166 99.5788C99.4253 99.8623 99.4797 100.207 99.4797 100.613V100.922H95.9231V100.269H98.6262C98.6262 100.04 98.5796 99.837 98.4864 99.6603C98.3932 99.4817 98.2621 99.3409 98.0932 99.238C97.9262 99.135 97.73 99.0836 97.5048 99.0836C97.2601 99.0836 97.0465 99.1438 96.864 99.2642C96.6834 99.3826 96.5435 99.538 96.4445 99.7302C96.3474 99.9205 96.2989 100.127 96.2989 100.351V100.86C96.2989 101.159 96.3513 101.414 96.4562 101.624C96.563 101.833 96.7115 101.994 96.9018 102.104C97.0921 102.213 97.3145 102.267 97.5689 102.267C97.7339 102.267 97.8844 102.244 98.0203 102.197C98.1563 102.149 98.2738 102.077 98.3728 101.982C98.4718 101.887 98.5476 101.769 98.6 101.629L99.4243 101.778C99.3583 102.021 99.2399 102.233 99.069 102.416C98.9 102.596 98.6874 102.737 98.4311 102.838C98.1767 102.937 97.8864 102.987 97.5601 102.987ZM103.478 100.284V101.038H101.055V100.284H103.478ZM101.299 98.4224V102.896H100.446V98.4224H101.299ZM104.087 98.4224V102.896H103.236V98.4224H104.087ZM106.106 101.676L108.078 98.4224H109.016V102.896H108.162V99.6399L106.199 102.896H105.252V98.4224H106.106V101.676ZM112.115 102.987C111.674 102.987 111.294 102.893 110.976 102.704C110.659 102.514 110.415 102.247 110.242 101.903C110.071 101.558 109.986 101.153 109.986 100.689C109.986 100.23 110.071 99.8264 110.242 99.4768C110.415 99.1273 110.655 98.8544 110.964 98.6583C111.275 98.4622 111.638 98.3641 112.054 98.3641C112.306 98.3641 112.551 98.4059 112.788 98.4894C113.025 98.5729 113.237 98.7039 113.426 98.8826C113.614 99.0613 113.763 99.2933 113.871 99.5788C113.98 99.8623 114.034 100.207 114.034 100.613V100.922H110.478V100.269H113.181C113.181 100.04 113.134 99.837 113.041 99.6603C112.948 99.4817 112.817 99.3409 112.648 99.238C112.481 99.135 112.285 99.0836 112.059 99.0836C111.815 99.0836 111.601 99.1438 111.419 99.2642C111.238 99.3826 111.098 99.538 110.999 99.7302C110.902 99.9205 110.854 100.127 110.854 100.351V100.86C110.854 101.159 110.906 101.414 111.011 101.624C111.118 101.833 111.266 101.994 111.457 102.104C111.647 102.213 111.869 102.267 112.124 102.267C112.289 102.267 112.439 102.244 112.575 102.197C112.711 102.149 112.828 102.077 112.927 101.982C113.027 101.887 113.102 101.769 113.155 101.629L113.979 101.778C113.913 102.021 113.795 102.233 113.624 102.416C113.455 102.596 113.242 102.737 112.986 102.838C112.731 102.937 112.441 102.987 112.115 102.987ZM38.6168 112.987C38.1838 112.987 37.8109 112.889 37.4983 112.693C37.1876 112.495 36.9487 112.222 36.7817 111.874C36.6147 111.526 36.5312 111.128 36.5312 110.68C36.5312 110.225 36.6167 109.824 36.7875 109.477C36.9584 109.127 37.1992 108.854 37.5099 108.658C37.8206 108.462 38.1867 108.364 38.6081 108.364C38.9479 108.364 39.2508 108.427 39.5169 108.553C39.7829 108.678 39.9975 108.853 40.1606 109.078C40.3257 109.303 40.4237 109.566 40.4548 109.867H39.6072C39.5606 109.657 39.4538 109.477 39.2868 109.325C39.1217 109.174 38.9003 109.098 38.6226 109.098C38.3799 109.098 38.1673 109.162 37.9847 109.29C37.8041 109.417 37.6633 109.597 37.5624 109.832C37.4614 110.065 37.4109 110.341 37.4109 110.659C37.4109 110.986 37.4604 111.267 37.5594 111.504C37.6585 111.741 37.7983 111.925 37.9789 112.055C38.1614 112.185 38.376 112.25 38.6226 112.25C38.7877 112.25 38.9372 112.22 39.0712 112.16C39.2071 112.097 39.3207 112.009 39.412 111.894C39.5052 111.78 39.5703 111.642 39.6072 111.481H40.4548C40.4237 111.77 40.3295 112.028 40.1723 112.256C40.015 112.483 39.8043 112.662 39.5402 112.792C39.278 112.922 38.9702 112.987 38.6168 112.987ZM43.6269 106.931H44.5182V111.312H44.5735L47.6087 106.931H48.4418V112.896H47.5417V108.521H47.4864L44.457 112.896H43.6269V106.931ZM52.7171 110.284V111.038H50.2936V110.284H52.7171ZM50.5383 108.422V112.896H49.6848V108.422H50.5383ZM53.3259 108.422V112.896H52.4753V108.422H53.3259ZM53.9361 109.174V108.422H57.7111V109.174H56.2518V112.896H55.4013V109.174H53.9361ZM60.3523 112.987C59.9115 112.987 59.5319 112.893 59.2134 112.704C58.8969 112.514 58.6522 112.247 58.4794 111.903C58.3085 111.558 58.2231 111.153 58.2231 110.689C58.2231 110.23 58.3085 109.826 58.4794 109.477C58.6522 109.127 58.893 108.854 59.2018 108.658C59.5125 108.462 59.8756 108.364 60.2912 108.364C60.5436 108.364 60.7883 108.406 61.0252 108.489C61.2621 108.573 61.4748 108.704 61.6631 108.883C61.8515 109.061 62 109.293 62.1088 109.579C62.2175 109.862 62.2719 110.207 62.2719 110.613V110.922H58.7153V110.269H61.4184C61.4184 110.04 61.3718 109.837 61.2786 109.66C61.1854 109.482 61.0543 109.341 60.8854 109.238C60.7184 109.135 60.5223 109.084 60.297 109.084C60.0523 109.084 59.8387 109.144 59.6562 109.264C59.4756 109.383 59.3358 109.538 59.2367 109.73C59.1396 109.921 59.0911 110.127 59.0911 110.351V110.86C59.0911 111.159 59.1435 111.414 59.2484 111.624C59.3552 111.833 59.5037 111.994 59.694 112.104C59.8844 112.213 60.1067 112.267 60.3611 112.267C60.5261 112.267 60.6766 112.244 60.8126 112.197C60.9485 112.149 61.066 112.077 61.165 111.982C61.2641 111.887 61.3398 111.769 61.3922 111.629L62.2166 111.778C62.1505 112.021 62.0321 112.233 61.8612 112.416C61.6922 112.596 61.4796 112.737 61.2233 112.838C60.9689 112.937 60.6786 112.987 60.3523 112.987ZM63.2382 114.574V108.422H64.0888V109.148H64.1616C64.2121 109.054 64.2849 108.947 64.3801 108.824C64.4752 108.702 64.6073 108.595 64.7762 108.504C64.9452 108.411 65.1685 108.364 65.4462 108.364C65.8074 108.364 66.1297 108.455 66.4132 108.638C66.6967 108.82 66.9191 109.084 67.0803 109.427C67.2434 109.771 67.3249 110.185 67.3249 110.668C67.3249 111.152 67.2443 111.566 67.0832 111.912C66.922 112.256 66.7006 112.521 66.419 112.707C66.1375 112.892 65.8161 112.984 65.4549 112.984C65.183 112.984 64.9607 112.938 64.7879 112.847C64.617 112.756 64.483 112.649 64.3859 112.527C64.2888 112.404 64.214 112.295 64.1616 112.2H64.1092V114.574H63.2382ZM64.0917 110.659C64.0917 110.974 64.1373 111.25 64.2286 111.487C64.3199 111.724 64.4519 111.909 64.6247 112.043C64.7976 112.175 65.0092 112.241 65.2597 112.241C65.52 112.241 65.7374 112.172 65.9122 112.034C66.087 111.894 66.219 111.705 66.3084 111.466C66.3996 111.227 66.4453 110.958 66.4453 110.659C66.4453 110.364 66.4006 110.099 66.3113 109.864C66.2239 109.629 66.0918 109.444 65.9151 109.308C65.7404 109.172 65.5219 109.104 65.2597 109.104C65.0073 109.104 64.7937 109.169 64.6189 109.299C64.4461 109.429 64.315 109.611 64.2257 109.844C64.1364 110.077 64.0917 110.349 64.0917 110.659ZM71.333 110.284V111.038H68.9095V110.284H71.333ZM69.1542 108.422V112.896H68.3007V108.422H69.1542ZM71.9418 108.422V112.896H71.0912V108.422H71.9418ZM75.0352 112.987C74.5944 112.987 74.2147 112.893 73.8963 112.704C73.5798 112.514 73.3351 112.247 73.1622 111.903C72.9914 111.558 72.9059 111.153 72.9059 110.689C72.9059 110.23 72.9914 109.826 73.1622 109.477C73.3351 109.127 73.5759 108.854 73.8846 108.658C74.1953 108.462 74.5585 108.364 74.974 108.364C75.2265 108.364 75.4712 108.406 75.7081 108.489C75.945 108.573 76.1576 108.704 76.346 108.883C76.5343 109.061 76.6829 109.293 76.7916 109.579C76.9004 109.862 76.9548 110.207 76.9548 110.613V110.922H73.3982V110.269H76.1013C76.1013 110.04 76.0547 109.837 75.9615 109.66C75.8683 109.482 75.7372 109.341 75.5682 109.238C75.4012 109.135 75.2051 109.084 74.9799 109.084C74.7352 109.084 74.5216 109.144 74.339 109.264C74.1584 109.383 74.0186 109.538 73.9196 109.73C73.8225 109.921 73.7739 110.127 73.7739 110.351V110.86C73.7739 111.159 73.8264 111.414 73.9312 111.624C74.038 111.833 74.1866 111.994 74.3769 112.104C74.5672 112.213 74.7895 112.267 75.0439 112.267C75.209 112.267 75.3595 112.244 75.4954 112.197C75.6314 112.149 75.7488 112.077 75.8479 111.982C75.9469 111.887 76.0226 111.769 76.0751 111.629L76.8994 111.778C76.8334 112.021 76.7149 112.233 76.544 112.416C76.3751 112.596 76.1625 112.737 75.9061 112.838C75.6517 112.937 75.3614 112.987 75.0352 112.987ZM77.5264 109.174V108.422H81.3014V109.174H79.8421V112.896H78.9916V109.174H77.5264ZM83.8989 112.987C83.4795 112.987 83.1135 112.891 82.8008 112.698C82.4882 112.506 82.2454 112.237 82.0726 111.892C81.8998 111.546 81.8134 111.142 81.8134 110.68C81.8134 110.216 81.8998 109.81 82.0726 109.462C82.2454 109.115 82.4882 108.845 82.8008 108.652C83.1135 108.46 83.4795 108.364 83.8989 108.364C84.3184 108.364 84.6844 108.46 84.9971 108.652C85.3097 108.845 85.5525 109.115 85.7253 109.462C85.8981 109.81 85.9845 110.216 85.9845 110.68C85.9845 111.142 85.8981 111.546 85.7253 111.892C85.5525 112.237 85.3097 112.506 84.9971 112.698C84.6844 112.891 84.3184 112.987 83.8989 112.987ZM83.9019 112.256C84.1737 112.256 84.399 112.184 84.5776 112.04C84.7563 111.896 84.8883 111.705 84.9738 111.466C85.0612 111.227 85.1049 110.964 85.1049 110.677C85.1049 110.391 85.0612 110.129 84.9738 109.89C84.8883 109.65 84.7563 109.456 84.5776 109.311C84.399 109.165 84.1737 109.092 83.9019 109.092C83.6281 109.092 83.4009 109.165 83.2203 109.311C83.0416 109.456 82.9086 109.65 82.8212 109.89C82.7358 110.129 82.693 110.391 82.693 110.677C82.693 110.964 82.7358 111.227 82.8212 111.466C82.9086 111.705 83.0416 111.896 83.2203 112.04C83.4009 112.184 83.6281 112.256 83.9019 112.256ZM89.4675 111.819L90.9123 108.422H91.6638L89.7909 112.896H89.1442L87.3091 108.422H88.0519L89.4675 111.819ZM87.8101 108.422V112.896H86.9567V108.422H87.8101ZM91.1483 112.896V108.422H91.9959V112.896H91.1483Z" fill="black"/>
<defs>
<filter id="filter0_d_2526_96750" x="0.875" y="0.568359" width="128.898" height="130.654" filterUnits="userSpaceOnUse" color-interpolation-filters="sRGB">
<feFlood flood-opacity="0" result="BackgroundImageFix"/>
<feColorMatrix in="SourceAlpha" type="matrix" values="0 0 0 0 0 0 0 0 0 0 0 0 0 0 0 0 0 0 127 0" result="hardAlpha"/>
<feOffset dy="1.75769"/>
<feComposite in2="hardAlpha" operator="out"/>
<feColorMatrix type="matrix" values="0 0 0 0 0.168627 0 0 0 0 0.243137 0 0 0 0 0.627451 0 0 0 1 0"/>
<feBlend mode="normal" in2="BackgroundImageFix" result="effect1_dropShadow_2526_96750"/>
<feBlend mode="normal" in="SourceGraphic" in2="effect1_dropShadow_2526_96750" result="shape"/>
</filter>
<filter id="filter1_d_2526_96750" x="22.4453" y="11.9453" width="85.6094" height="75.7577" filterUnits="userSpaceOnUse" color-interpolation-filters="sRGB">
<feFlood flood-opacity="0" result="BackgroundImageFix"/>
<feColorMatrix in="SourceAlpha" type="matrix" values="0 0 0 0 0 0 0 0 0 0 0 0 0 0 0 0 0 0 127 0" result="hardAlpha"/>
<feOffset dy="1.75769"/>
<feComposite in2="hardAlpha" operator="out"/>
<feColorMatrix type="matrix" values="0 0 0 0 0.358854 0 0 0 0 0.485875 0 0 0 0 0.8125 0 0 0 1 0"/>
<feBlend mode="normal" in2="BackgroundImageFix" result="effect1_dropShadow_2526_96750"/>
<feBlend mode="normal" in="SourceGraphic" in2="effect1_dropShadow_2526_96750" result="shape"/>
</filter>
<filter id="filter2_d_2526_96750" x="61.1484" y="30.8985" width="8.20312" height="26.6034" filterUnits="userSpaceOnUse" color-interpolation-filters="sRGB">
<feFlood flood-opacity="0" result="BackgroundImageFix"/>
<feColorMatrix in="SourceAlpha" type="matrix" values="0 0 0 0 0 0 0 0 0 0 0 0 0 0 0 0 0 0 127 0" result="hardAlpha"/>
<feOffset dy="-1.17179"/>
<feComposite in2="hardAlpha" operator="out"/>
<feColorMatrix type="matrix" values="0 0 0 0 0.529412 0 0 0 0 0.603922 0 0 0 0 1 0 0 0 1 0"/>
<feBlend mode="normal" in2="BackgroundImageFix" result="effect1_dropShadow_2526_96750"/>
<feBlend mode="normal" in="SourceGraphic" in2="effect1_dropShadow_2526_96750" result="shape"/>
</filter>
<filter id="filter3_d_2526_96750" x="60.9219" y="63.9005" width="8.66406" height="9.55851" filterUnits="userSpaceOnUse" color-interpolation-filters="sRGB">
<feFlood flood-opacity="0" result="BackgroundImageFix"/>
<feColorMatrix in="SourceAlpha" type="matrix" values="0 0 0 0 0 0 0 0 0 0 0 0 0 0 0 0 0 0 127 0" result="hardAlpha"/>
<feOffset dy="-1.17179"/>
<feComposite in2="hardAlpha" operator="out"/>
<feColorMatrix type="matrix" values="0 0 0 0 0.529412 0 0 0 0 0.603922 0 0 0 0 1 0 0 0 1 0"/>
<feBlend mode="normal" in2="BackgroundImageFix" result="effect1_dropShadow_2526_96750"/>
<feBlend mode="normal" in="SourceGraphic" in2="effect1_dropShadow_2526_96750" result="shape"/>
</filter>
</defs>
</svg>
