<svg width="23" height="23" viewBox="0 0 23 23" fill="none" xmlns="http://www.w3.org/2000/svg">
<path d="M15.5001 2.89453C15.9559 2.89439 16.3949 3.06734 16.729 3.37872C17.0632 3.6901 17.2679 4.1169 17.3021 4.57355L17.3066 4.70968V9.24757H18.6615C18.9983 9.24759 19.3231 9.37365 19.5724 9.60118C19.8217 9.82871 19.9777 10.1414 20.0101 10.4782L20.0164 10.6089V17.4158C20.0164 18.1102 19.7524 18.7785 19.2782 19.2838C18.804 19.7891 18.1556 20.0932 17.4656 20.134L17.3066 20.1385H5.56432C5.10856 20.1386 4.66959 19.9657 4.3354 19.6543C4.00121 19.3429 3.79651 18.9161 3.76233 18.4595L3.75781 18.3233V4.70968C3.75767 4.25174 3.9298 3.81067 4.2397 3.47488C4.54959 3.1391 4.97436 2.93341 5.42883 2.89907L5.56432 2.89453H15.5001ZM18.2099 11.0627H17.3066V18.3233C17.5462 18.3233 17.7759 18.2277 17.9453 18.0575C18.1147 17.8873 18.2099 17.6565 18.2099 17.4158V11.0627ZM15.5001 4.70968H5.56432V18.3233H15.5001V4.70968ZM10.9839 11.9703C11.2141 11.9706 11.4355 12.0591 11.6029 12.2179C11.7703 12.3767 11.8711 12.5938 11.8846 12.8247C11.898 13.0556 11.8233 13.283 11.6755 13.4604C11.5277 13.6378 11.3181 13.7518 11.0895 13.7791L10.9839 13.7855H8.27409C8.04387 13.7852 7.82243 13.6966 7.65503 13.5378C7.48762 13.379 7.38688 13.162 7.37339 12.9311C7.3599 12.7001 7.43467 12.4728 7.58243 12.2954C7.7302 12.118 7.9398 12.004 8.16841 11.9767L8.27409 11.9703H10.9839ZM12.7904 7.43242C13.0299 7.43242 13.2597 7.52803 13.4291 7.69824C13.5985 7.86844 13.6936 8.09929 13.6936 8.33999C13.6936 8.5807 13.5985 8.81154 13.4291 8.98175C13.2597 9.15195 13.0299 9.24757 12.7904 9.24757H8.27409C8.03453 9.24757 7.80478 9.15195 7.63539 8.98175C7.466 8.81154 7.37083 8.5807 7.37083 8.33999C7.37083 8.09929 7.466 7.86844 7.63539 7.69824C7.80478 7.52803 8.03453 7.43242 8.27409 7.43242H12.7904Z" fill="#5C7CCF"/>
</svg>
