<svg width="23" height="23" viewBox="0 0 23 23" fill="none" xmlns="http://www.w3.org/2000/svg">
<path d="M5.28603 5.11505C4.92317 5.11481 4.56383 5.18422 4.22854 5.31932C3.89326 5.45441 3.58862 5.65254 3.33204 5.90237C3.07546 6.15219 2.87198 6.44882 2.73323 6.77528C2.59448 7.10174 2.52319 7.45163 2.52344 7.80494C2.52344 9.82191 5.28603 12.7999 5.28603 12.7999C5.28603 12.7999 8.04863 9.82191 8.04863 7.80494C8.04887 7.45163 7.97758 7.10174 7.83883 6.77528C7.70009 6.44882 7.4966 6.15219 7.24002 5.90237C6.98344 5.65254 6.6788 5.45441 6.34352 5.31932C6.00824 5.18422 5.64889 5.11481 5.28603 5.11505ZM5.28603 8.7651C5.091 8.7651 4.90034 8.70879 4.73818 8.60328C4.57601 8.49778 4.44962 8.34782 4.37498 8.17238C4.30035 7.99693 4.28082 7.80387 4.31887 7.61762C4.35692 7.43137 4.45084 7.26028 4.58875 7.126C4.72666 6.99172 4.90236 6.90028 5.09365 6.86323C5.28494 6.82618 5.48321 6.84519 5.6634 6.91787C5.84359 6.99054 5.9976 7.11361 6.10595 7.2715C6.21431 7.4294 6.27214 7.61504 6.27214 7.80494C6.2719 8.05952 6.16792 8.3036 5.98305 8.48361C5.79817 8.66362 5.54749 8.76486 5.28603 8.7651ZM19.2085 11.2518V7.36776C19.2015 6.95994 19.1379 6.55491 19.0192 6.16373C18.7148 5.12979 18.0412 4.23571 17.1196 3.64261C16.1981 3.04952 15.0893 2.79641 13.9931 2.92891C12.8969 3.06141 11.8853 3.57079 11.1406 4.36527C10.396 5.15975 9.96731 6.18706 9.93179 7.26208V7.48609L9.92251 8.27192V17.2611H9.9188V17.2982C9.9188 17.7773 9.72333 18.2368 9.37539 18.5755C9.02744 18.9143 8.55553 19.1047 8.06347 19.1047C7.5714 19.1047 7.09949 18.9143 6.75155 18.5755C6.4036 18.2368 6.20813 17.7773 6.20813 17.2982L6.21184 17.2647H6.20813V15.5097H4.3528V17.3162H4.35465C4.35527 18.274 4.74661 19.1923 5.44258 19.8691C6.13855 20.5459 7.08215 20.9258 8.06579 20.9252C9.04943 20.9246 9.99253 20.5435 10.6876 19.8659C11.3827 19.1882 11.7729 18.2695 11.7723 17.3117H11.7741V16.4247H11.7788V9.17518L11.7881 7.48609V7.26299C11.8145 6.55191 12.127 5.87947 12.6582 5.39079C13.1894 4.90211 13.8966 4.63639 14.6272 4.65098C15.3578 4.66556 16.0533 4.95928 16.5634 5.46874C17.0736 5.9782 17.3576 6.66255 17.3541 7.37409V11.2355C16.9988 11.4312 16.7198 11.7356 16.5603 12.1014C16.4008 12.4672 16.3697 12.8741 16.4719 13.2589C16.574 13.6437 16.8037 13.9849 17.1253 14.2296C17.4469 14.4744 17.8424 14.6089 18.2506 14.6125C18.6587 14.6161 19.0567 14.4885 19.3828 14.2494C19.7088 14.0103 19.9448 13.6732 20.054 13.2903C20.1633 12.9073 20.1397 12.5 19.987 12.1314C19.8343 11.7629 19.56 11.4537 19.2085 11.2518Z" fill="#5C7CCF"/>
</svg>
