<svg width="22" height="23" viewBox="0 0 22 23" fill="none" xmlns="http://www.w3.org/2000/svg">
<path d="M11.0246 13.0443C11.2 13.0443 11.3714 12.9923 11.5173 12.8949C11.6631 12.7974 11.7768 12.6589 11.8439 12.4969C11.911 12.3348 11.9286 12.1565 11.8944 11.9845C11.8601 11.8125 11.7757 11.6544 11.6517 11.5304C11.5276 11.4064 11.3696 11.3219 11.1976 11.2877C11.0256 11.2535 10.8472 11.271 10.6852 11.3382C10.5231 11.4053 10.3846 11.519 10.2872 11.6648C10.1898 11.8106 10.1377 11.9821 10.1377 12.1575C10.1377 12.3927 10.2312 12.6183 10.3975 12.7846C10.5638 12.9509 10.7894 13.0443 11.0246 13.0443ZM15.4587 13.0443C15.6341 13.0443 15.8056 12.9923 15.9514 12.8949C16.0973 12.7974 16.2109 12.6589 16.2781 12.4969C16.3452 12.3348 16.3627 12.1565 16.3285 11.9845C16.2943 11.8125 16.2098 11.6544 16.0858 11.5304C15.9618 11.4064 15.8038 11.3219 15.6317 11.2877C15.4597 11.2535 15.2814 11.271 15.1194 11.3382C14.9573 11.4053 14.8188 11.519 14.7214 11.6648C14.6239 11.8106 14.5719 11.9821 14.5719 12.1575C14.5719 12.3927 14.6653 12.6183 14.8316 12.7846C14.998 12.9509 15.2235 13.0443 15.4587 13.0443ZM11.0246 16.5917C11.2 16.5917 11.3714 16.5396 11.5173 16.4422C11.6631 16.3448 11.7768 16.2062 11.8439 16.0442C11.911 15.8822 11.9286 15.7038 11.8944 15.5318C11.8601 15.3598 11.7757 15.2018 11.6517 15.0777C11.5276 14.9537 11.3696 14.8693 11.1976 14.835C11.0256 14.8008 10.8472 14.8184 10.6852 14.8855C10.5231 14.9526 10.3846 15.0663 10.2872 15.2121C10.1898 15.358 10.1377 15.5294 10.1377 15.7048C10.1377 15.94 10.2312 16.1656 10.3975 16.3319C10.5638 16.4982 10.7894 16.5917 11.0246 16.5917ZM15.4587 16.5917C15.6341 16.5917 15.8056 16.5396 15.9514 16.4422C16.0973 16.3448 16.2109 16.2062 16.2781 16.0442C16.3452 15.8822 16.3627 15.7038 16.3285 15.5318C16.2943 15.3598 16.2098 15.2018 16.0858 15.0777C15.9618 14.9537 15.8038 14.8693 15.6317 14.835C15.4597 14.8008 15.2814 14.8184 15.1194 14.8855C14.9573 14.9526 14.8188 15.0663 14.7214 15.2121C14.6239 15.358 14.5719 15.5294 14.5719 15.7048C14.5719 15.94 14.6653 16.1656 14.8316 16.3319C14.998 16.4982 15.2235 16.5917 15.4587 16.5917ZM6.59041 13.0443C6.76581 13.0443 6.93727 12.9923 7.08311 12.8949C7.22895 12.7974 7.34261 12.6589 7.40974 12.4969C7.47686 12.3348 7.49442 12.1565 7.4602 11.9845C7.42598 11.8125 7.34152 11.6544 7.2175 11.5304C7.09347 11.4064 6.93545 11.3219 6.76342 11.2877C6.59139 11.2535 6.41308 11.271 6.25103 11.3382C6.08899 11.4053 5.95048 11.519 5.85304 11.6648C5.75559 11.8106 5.70358 11.9821 5.70358 12.1575C5.70358 12.3927 5.79701 12.6183 5.96333 12.7846C6.12964 12.9509 6.35521 13.0443 6.59041 13.0443ZM17.2324 4.17601H16.3456V3.28918C16.3456 3.05397 16.2521 2.8284 16.0858 2.66209C15.9195 2.49578 15.6939 2.40234 15.4587 2.40234C15.2235 2.40234 14.998 2.49578 14.8316 2.66209C14.6653 2.8284 14.5719 3.05397 14.5719 3.28918V4.17601H7.47724V3.28918C7.47724 3.05397 7.38381 2.8284 7.2175 2.66209C7.05118 2.49578 6.82561 2.40234 6.59041 2.40234C6.35521 2.40234 6.12964 2.49578 5.96333 2.66209C5.79701 2.8284 5.70358 3.05397 5.70358 3.28918V4.17601H4.81675C4.11114 4.17601 3.43443 4.45631 2.93549 4.95525C2.43655 5.45419 2.15625 6.1309 2.15625 6.8365V17.4785C2.15625 18.1841 2.43655 18.8608 2.93549 19.3597C3.43443 19.8587 4.11114 20.139 4.81675 20.139H17.2324C17.938 20.139 18.6147 19.8587 19.1137 19.3597C19.6126 18.8608 19.8929 18.1841 19.8929 17.4785V6.8365C19.8929 6.1309 19.6126 5.45419 19.1137 4.95525C18.6147 4.45631 17.938 4.17601 17.2324 4.17601ZM18.1192 17.4785C18.1192 17.7137 18.0258 17.9393 17.8595 18.1056C17.6932 18.2719 17.4676 18.3653 17.2324 18.3653H4.81675C4.58154 18.3653 4.35597 18.2719 4.18966 18.1056C4.02335 17.9393 3.92991 17.7137 3.92991 17.4785V9.497H18.1192V17.4785ZM18.1192 7.72334H3.92991V6.8365C3.92991 6.6013 4.02335 6.37573 4.18966 6.20942C4.35597 6.04311 4.58154 5.94967 4.81675 5.94967H17.2324C17.4676 5.94967 17.6932 6.04311 17.8595 6.20942C18.0258 6.37573 18.1192 6.6013 18.1192 6.8365V7.72334ZM6.59041 16.5917C6.76581 16.5917 6.93727 16.5396 7.08311 16.4422C7.22895 16.3448 7.34261 16.2062 7.40974 16.0442C7.47686 15.8822 7.49442 15.7038 7.4602 15.5318C7.42598 15.3598 7.34152 15.2018 7.2175 15.0777C7.09347 14.9537 6.93545 14.8693 6.76342 14.835C6.59139 14.8008 6.41308 14.8184 6.25103 14.8855C6.08899 14.9526 5.95048 15.0663 5.85304 15.2121C5.75559 15.358 5.70358 15.5294 5.70358 15.7048C5.70358 15.94 5.79701 16.1656 5.96333 16.3319C6.12964 16.4982 6.35521 16.5917 6.59041 16.5917Z" fill="#2B3EA0"/>
</svg>
