<svg width="23" height="23" viewBox="0 0 23 23" fill="none" xmlns="http://www.w3.org/2000/svg">
<path fill-rule="evenodd" clip-rule="evenodd" d="M13.5158 3.16056C13.8621 2.91872 14.3488 2.80597 14.8271 2.976C15.8439 3.33801 16.7883 3.86867 17.6183 4.54437C18.0086 4.86259 18.1518 5.32719 18.1087 5.73815C18.0385 6.42278 18.1621 7.08377 18.5019 7.65293C18.8014 8.15935 19.2525 8.5594 19.8029 8.84125L20.0135 8.94126C20.401 9.11128 20.7455 9.46496 20.8325 9.9532C21.0185 10.9879 21.0185 12.0461 20.8325 13.0809C20.7548 13.5209 20.4675 13.8509 20.1277 14.0364L20.0135 14.0937C19.3677 14.3756 18.8398 14.812 18.5009 15.3811C18.1621 15.9512 18.0385 16.6113 18.1087 17.2959C18.1509 17.7069 18.0086 18.1724 17.6183 18.4897C16.7883 19.1654 15.8439 19.6961 14.8271 20.0581C14.6098 20.1336 14.3767 20.1562 14.1483 20.1241C13.9199 20.0919 13.703 20.0059 13.5167 19.8735C12.9401 19.4725 12.2877 19.2452 11.611 19.2452C10.9343 19.2452 10.2819 19.4716 9.70624 19.8735C9.51983 20.006 9.30282 20.0921 9.07421 20.1243C8.8456 20.1565 8.61236 20.1337 8.3949 20.0581C7.37811 19.6961 6.43371 19.1654 5.60373 18.4897C5.4279 18.3447 5.29128 18.1601 5.20579 17.952C5.1203 17.7439 5.08853 17.5187 5.11327 17.2959C5.18347 16.6113 5.05898 15.9503 4.72014 15.3811C4.41211 14.8725 3.96065 14.4602 3.4191 14.1928L3.2085 14.0928C2.99724 14.002 2.81211 13.8623 2.66933 13.6858C2.52655 13.5094 2.43047 13.3017 2.38949 13.0809C2.2035 12.0461 2.2035 10.9879 2.38949 9.9532C2.46718 9.51315 2.75453 9.18311 3.0943 8.99763L3.2085 8.94126C3.85434 8.6585 4.38225 8.22299 4.72108 7.65293C5.05898 7.08377 5.18347 6.42278 5.11327 5.73815C5.08853 5.51539 5.1203 5.29015 5.20579 5.08206C5.29128 4.87397 5.4279 4.68937 5.60373 4.54437C6.43371 3.86867 7.37811 3.33801 8.3949 2.976C8.61223 2.90048 8.8453 2.87782 9.07373 2.91C9.30216 2.94217 9.519 3.0282 9.7053 3.16056C10.2809 3.56243 10.9333 3.78882 11.611 3.78882C12.2887 3.78882 12.9401 3.56243 13.5158 3.16056ZM14.4115 4.76894C13.601 5.28718 12.6453 5.60722 11.611 5.60722C10.5767 5.60722 9.62106 5.28628 8.81048 4.76894C8.15892 5.02454 7.54764 5.36795 6.99463 5.78906C7.05079 6.72827 6.85891 7.69202 6.34224 8.56213C5.82463 9.43132 5.06178 10.0741 4.19598 10.4969C4.09748 11.173 4.09748 11.8592 4.19598 12.5353C5.06178 12.9581 5.82463 13.6009 6.34224 14.4719C6.85891 15.3402 7.05079 16.304 6.99463 17.2432C7.54759 17.6646 8.15887 18.0083 8.81048 18.2642C9.62106 17.746 10.5767 17.4259 11.611 17.4259C12.6453 17.4259 13.601 17.7469 14.4115 18.2642C15.0631 18.0086 15.6744 17.6652 16.2274 17.2441C16.1712 16.304 16.3631 15.3402 16.8798 14.471C17.3964 13.6009 18.1602 12.9581 19.026 12.5344C19.1244 11.8589 19.1244 11.1733 19.026 10.4978C18.1602 10.0741 17.3974 9.43132 16.8798 8.56122C16.3631 7.69202 16.1712 6.72827 16.2274 5.78815C15.6744 5.36704 15.0631 5.02454 14.4115 4.76894ZM11.611 7.88023C12.604 7.88023 13.5563 8.26339 14.2584 8.94542C14.9606 9.62745 15.355 10.5525 15.355 11.517C15.355 12.4816 14.9606 13.4066 14.2584 14.0886C13.5563 14.7707 12.604 15.1538 11.611 15.1538C10.618 15.1538 9.66573 14.7707 8.96359 14.0886C8.26145 13.4066 7.86699 12.4816 7.86699 11.517C7.86699 10.5525 8.26145 9.62745 8.96359 8.94542C9.66573 8.26339 10.618 7.88023 11.611 7.88023ZM11.611 9.69863C11.1145 9.69863 10.6384 9.89021 10.2873 10.2312C9.93623 10.5722 9.739 11.0348 9.739 11.517C9.739 11.9993 9.93623 12.4618 10.2873 12.8028C10.6384 13.1439 11.1145 13.3354 11.611 13.3354C12.1075 13.3354 12.5836 13.1439 12.9347 12.8028C13.2858 12.4618 13.483 11.9993 13.483 11.517C13.483 11.0348 13.2858 10.5722 12.9347 10.2312C12.5836 9.89021 12.1075 9.69863 11.611 9.69863Z" fill="#5C7CCF"/>
</svg>
