<svg width="6" height="9" viewBox="0 0 6 9" fill="none" xmlns="http://www.w3.org/2000/svg">
<path fill-rule="evenodd" clip-rule="evenodd" d="M2.87978 0.753907C2.51692 0.753669 2.15758 0.823083 1.82229 0.958179C1.48701 1.09327 1.18237 1.2914 0.925789 1.54123C0.66921 1.79106 0.465728 2.08768 0.326981 2.41414C0.188234 2.7406 0.116944 3.09049 0.117188 3.4438C0.117188 5.46077 2.87978 8.4388 2.87978 8.4388C2.87978 8.4388 5.64238 5.46077 5.64238 3.4438C5.64262 3.09049 5.57133 2.7406 5.43258 2.41414C5.29384 2.08768 5.09035 1.79106 4.83377 1.54123C4.5772 1.2914 4.27255 1.09327 3.93727 0.958179C3.60199 0.823083 3.24264 0.753669 2.87978 0.753907ZM2.33193 4.24214C2.49409 4.34765 2.68475 4.40396 2.87978 4.40396C3.14124 4.40372 3.39192 4.30249 3.5768 4.12247C3.76167 3.94246 3.86565 3.69838 3.86589 3.4438C3.86589 3.2539 3.80806 3.06826 3.6997 2.91036C3.59135 2.75247 3.43734 2.6294 3.25715 2.55673C3.07696 2.48406 2.87869 2.46504 2.6874 2.50209C2.49611 2.53914 2.32041 2.63058 2.1825 2.76486C2.04459 2.89915 1.95067 3.07023 1.91262 3.25648C1.87457 3.44273 1.8941 3.63579 1.96873 3.81124C2.04337 3.98668 2.16976 4.13664 2.33193 4.24214Z" fill="#6E6B62"/>
</svg>
